<?xml version="1.0" standalone="no"?>
<!DOCTYPE svg PUBLIC "-//W3C//DTD SVG 20010904//EN"
 "http://www.w3.org/TR/2001/REC-SVG-20010904/DTD/svg10.dtd">
<svg version="1.0" xmlns="http://www.w3.org/2000/svg"
 width="128.000000pt" height="128.000000pt" viewBox="0 0 128.000000 128.000000"
 preserveAspectRatio="xMidYMid meet">
<metadata>
Created by potrace 1.14, written by Peter Selinger 2001-2017
</metadata>
<g transform="translate(0.000000,128.000000) scale(0.100000,-0.100000)"
fill="#000000" stroke="none">
<path d="M618 958 l-3 -193 -193 0 c-107 0 -198 2 -203 5 -18 12 51 132 108
189 51 51 150 111 183 111 7 0 10 -35 8 -110 l-2 -110 -61 0 -61 0 -2 56 c-1
31 -4 59 -7 62 -10 11 -94 -81 -115 -126 -12 -24 -19 -46 -17 -48 5 -6 317
-10 318 -4 0 3 2 83 2 178 l2 174 -37 -6 c-84 -14 -198 -79 -276 -157 -47 -48
-106 -159 -121 -226 l-9 -43 237 -1 c130 -1 239 -1 244 0 16 2 6 -37 -10 -41
-10 -2 -120 -3 -245 -3 l-228 1 0 -31 0 -31 243 0 242 0 0 -23 0 -24 -237 1
c-131 0 -239 -2 -242 -6 -9 -15 43 -152 78 -206 45 -67 100 -116 181 -161 49
-27 150 -65 174 -65 5 0 6 281 2 340 -1 14 -24 16 -161 16 -88 0 -160 -3 -160
-8 0 -35 121 -190 136 -175 3 2 5 29 5 60 1 32 6 57 13 60 6 2 34 3 61 3 l50
-1 3 -113 3 -112 -51 19 c-109 42 -197 132 -243 249 l-17 42 205 0 205 0 0
-190 0 -190 30 0 30 0 0 190 0 190 73 0 c226 2 313 2 324 1 34 -3 -61 -169
-127 -221 -37 -29 -135 -80 -155 -80 -8 0 -12 145 -6 205 1 6 27 11 61 11 l60
0 0 -64 0 -63 28 20 c33 23 75 80 96 131 l15 36 -164 0 -163 0 0 -178 -1 -179
41 6 c137 21 263 115 335 251 33 63 66 171 54 178 -4 3 -90 5 -192 5 -301 -1
-281 -2 -277 23 3 21 4 22 241 21 l237 0 0 32 0 32 -240 -1 -240 -1 0 22 c0
22 0 22 213 22 116 0 224 0 238 0 26 1 27 2 18 40 -31 139 -111 255 -226 329
-47 30 -186 76 -197 64 -9 -8 -7 -352 2 -352 12 -1 265 -1 295 -1 l27 1 -25
50 c-26 52 -90 130 -106 130 -5 0 -9 -27 -9 -60 l0 -61 -62 3 -63 3 0 103 c-1
117 -1 116 81 78 92 -43 166 -125 204 -225 l20 -51 -202 2 -203 3 -3 193 -2
192 -30 0 -30 0 -2 -192z"/>
</g>
</svg>
